<svg width="201" height="169" viewBox="0 0 201 169" fill="none" xmlns="http://www.w3.org/2000/svg">
<path d="M-0.000183105 84.0108C-0.000183105 87.1934 1.26411 90.2457 3.51454 92.4961C5.76498 94.7465 8.81722 96.0108 11.9998 96.0108H159L107.48 147.521C105.225 149.775 103.959 152.833 103.959 156.021C103.959 159.209 105.225 162.266 107.48 164.521C109.734 166.775 112.792 168.042 115.98 168.042C119.168 168.042 122.225 166.775 124.48 164.521L196.48 92.5208C197.599 91.406 198.486 90.0813 199.092 88.6226C199.698 87.164 200.009 85.6002 200.009 84.0208C200.009 82.4414 199.698 80.8776 199.092 79.419C198.486 77.9604 197.599 76.6357 196.48 75.5208L124.48 3.52081C123.364 2.40458 122.038 1.51913 120.58 0.915028C119.122 0.310925 117.558 0 115.98 0C114.401 0 112.838 0.310925 111.38 0.915028C109.921 1.51913 108.596 2.40458 107.48 3.52081C106.364 4.63705 105.478 5.96221 104.874 7.42065C104.27 8.87908 103.959 10.4422 103.959 12.0208C103.959 13.5994 104.27 15.1626 104.874 16.621C105.478 18.0794 106.364 19.4046 107.48 20.5208L159 72.0108H11.9998C8.81722 72.0108 5.76498 73.2751 3.51454 75.5255C1.26411 77.776 -0.000183105 80.8282 -0.000183105 84.0108Z" fill="white"/>
</svg>
