<svg width="162" height="130" viewBox="0 0 162 130" fill="none" xmlns="http://www.w3.org/2000/svg">
<path d="M25.3125 0C18.5992 0 12.1609 2.66685 7.41386 7.41386C2.66685 12.1609 0 18.5992 0 25.3125V104.288C0 111.001 2.66685 117.439 7.41386 122.186C12.1609 126.933 18.5992 129.6 25.3125 129.6H136.688C143.401 129.6 149.839 126.933 154.586 122.186C159.333 117.439 162 111.001 162 104.288V25.3125C162 18.5992 159.333 12.1609 154.586 7.41386C149.839 2.66685 143.401 0 136.688 0H25.3125ZM10.125 25.3125C10.125 21.2845 11.7251 17.4215 14.5733 14.5733C17.4215 11.7251 21.2845 10.125 25.3125 10.125H136.688C140.715 10.125 144.578 11.7251 147.427 14.5733C150.275 17.4215 151.875 21.2845 151.875 25.3125V104.288C151.875 108.315 150.275 112.178 147.427 115.027C144.578 117.875 140.715 119.475 136.688 119.475H25.3125C21.2845 119.475 17.4215 117.875 14.5733 115.027C11.7251 112.178 10.125 108.315 10.125 104.288V25.3125ZM56.7 40.5V89.1C56.7 90.1538 56.9741 91.1895 57.4954 92.1053C58.0167 93.0211 58.7673 93.7856 59.6734 94.3236C60.5795 94.8616 61.6099 95.1547 62.6635 95.174C63.7172 95.1933 64.7577 94.9383 65.6829 94.4339L110.233 70.1339C111.191 69.6113 111.991 68.8402 112.549 67.9016C113.106 66.963 113.4 65.8916 113.4 64.8C113.4 63.7084 113.106 62.637 112.549 61.6984C111.991 60.7598 111.191 59.9887 110.233 59.4662L65.6829 35.1662C64.7577 34.6617 63.7172 34.4067 62.6635 34.426C61.6099 34.4453 60.5795 34.7384 59.6734 35.2764C58.7673 35.8144 58.0167 36.5789 57.4954 37.4947C56.9741 38.4105 56.7 39.4462 56.7 40.5Z" fill="white"/>
</svg>
